<?xml version="1.0" standalone="no"?>
<!DOCTYPE svg PUBLIC "-//W3C//DTD SVG 20010904//EN"
 "http://www.w3.org/TR/2001/REC-SVG-20010904/DTD/svg10.dtd">
<svg version="1.0" xmlns="http://www.w3.org/2000/svg"
 width="500.000000pt" height="500.000000pt" viewBox="0 0 500.000000 500.000000"
 preserveAspectRatio="xMidYMid meet">
<metadata>
Created by potrace 1.14, written by Peter Selinger 2001-2017
</metadata>
<g transform="translate(0.000000,500.000000) scale(0.100000,-0.100000)"
fill="#000000" stroke="none">
<path d="M3645 4585 c-129 -20 -200 -53 -409 -189 -77 -50 -163 -105 -191
-121 -27 -15 -86 -52 -131 -82 -45 -29 -92 -53 -105 -53 -49 1 -333 79 -345
95 -8 10 -14 12 -19 6 -9 -16 -25 -13 -25 3 0 19 -25 27 -39 13 -8 -8 -15 -7
-27 5 -12 12 -23 14 -40 8 -18 -7 -26 -5 -33 7 -8 15 -11 15 -25 3 -15 -11
-19 -10 -32 9 -15 21 -17 21 -35 5 -17 -16 -19 -15 -30 10 -14 30 -22 32 -39
11 -17 -20 -27 -19 -33 5 -3 11 -10 20 -15 20 -5 0 -12 -9 -15 -20 -3 -11 -10
-20 -15 -20 -6 0 -14 9 -17 20 -8 24 -18 25 -50 4 -24 -15 -26 -15 -44 7 -19
23 -21 23 -37 7 -17 -17 -19 -17 -40 3 l-22 20 -20 -21 c-17 -18 -24 -20 -41
-11 -12 7 -21 16 -21 21 0 21 -37 9 -50 -16 l-14 -26 -18 22 -18 22 -29 -32
c-18 -20 -31 -28 -35 -21 -18 28 -32 7 -43 -63 -12 -76 -48 -219 -62 -246 -9
-16 -17 -19 -319 -110 -178 -54 -196 -61 -230 -97 -20 -21 -95 -92 -166 -158
-71 -66 -144 -133 -161 -150 -18 -16 -81 -75 -140 -130 -230 -214 -232 -216
-199 -249 21 -22 27 -21 129 19 289 115 547 215 551 215 3 0 2 -440 -1 -978
-5 -821 -4 -980 7 -990 8 -6 165 -47 349 -91 538 -128 906 -215 1184 -281 143
-33 279 -65 303 -71 62 -17 104 -8 373 80 274 89 970 315 1039 337 25 8 52 19
60 24 13 8 15 89 12 654 l-3 644 53 20 c29 10 147 52 262 93 157 56 211 79
218 94 8 17 -27 84 -197 380 -270 470 -292 507 -319 526 -12 9 -130 43 -261
74 -132 32 -242 59 -244 61 -3 3 6 12 20 21 45 30 128 121 169 184 73 113 101
266 64 345 -50 106 -205 157 -389 129z"/>
</g>
</svg>
